<?xml version="1.0" encoding="UTF-8" standalone="no"?>
<!-- Created with Inkscape (http://www.inkscape.org/) -->

<svg
   xmlns:dc="http://purl.org/dc/elements/1.1/"
   xmlns:cc="http://creativecommons.org/ns#"
   xmlns:rdf="http://www.w3.org/1999/02/22-rdf-syntax-ns#"
   xmlns:svg="http://www.w3.org/2000/svg"
   xmlns="http://www.w3.org/2000/svg"
   xmlns:sodipodi="http://sodipodi.sourceforge.net/DTD/sodipodi-0.dtd"
   xmlns:inkscape="http://www.inkscape.org/namespaces/inkscape"
   width="64px"
   height="64px"
   id="svg6950"
   version="1.1"
   inkscape:version="0.91 r13725"
   sodipodi:docname="MouseLeftClickWithMouse.svg">
  <defs
     id="defs6952" />
  <sodipodi:namedview
     id="base"
     pagecolor="#ffffff"
     bordercolor="#666666"
     borderopacity="1.0"
     inkscape:pageopacity="0.0"
     inkscape:pageshadow="2"
     inkscape:zoom="7.7781746"
     inkscape:cx="16.955568"
     inkscape:cy="34.859015"
     inkscape:current-layer="svg6950"
     showgrid="true"
     inkscape:document-units="px"
     inkscape:grid-bbox="true"
     inkscape:window-width="1280"
     inkscape:window-height="737"
     inkscape:window-x="-8"
     inkscape:window-y="-8"
     inkscape:window-maximized="1"
     inkscape:snap-bbox="true"
     inkscape:snap-intersection-paths="true"
     inkscape:object-nodes="true" />
  <metadata
     id="metadata6955">
    <rdf:RDF>
      <cc:Work
         rdf:about="">
        <dc:format>image/svg+xml</dc:format>
        <dc:type
           rdf:resource="http://purl.org/dc/dcmitype/StillImage" />
        <dc:title />
      </cc:Work>
    </rdf:RDF>
  </metadata>
  <g
     style="fill:#000000"
     id="g12"
     transform="matrix(0.34879181,0,0,0.34879181,5.3388928,1.8781609)" />
  <g
     style="fill:#000000"
     id="g16"
     transform="matrix(0.34879181,0,0,0.34879181,5.3388928,1.8781609)" />
  <g
     style="fill:#000000"
     id="g20"
     transform="matrix(0.34879181,0,0,0.34879181,5.3388928,1.8781609)" />
  <path
     style="fill:#000000"
     d="M 23.890625 8.5722656 C 23.506954 8.5722656 23.158203 8.8169468 23.158203 9.1308594 L 23.158203 15.826172 C 23.158203 16.140085 23.506954 16.384766 23.890625 16.384766 C 24.274296 16.384766 24.623047 16.140085 24.623047 15.826172 L 24.623047 9.1308594 C 24.623047 8.8169468 24.274296 8.5722656 23.890625 8.5722656 z M 31.857422 11.759766 C 31.687386 11.737966 31.530419 11.780128 31.425781 11.884766 L 26.681641 16.628906 C 26.437487 16.873061 26.508075 17.2564 26.787109 17.570312 C 27.101022 17.884225 27.519241 17.920213 27.728516 17.710938 L 32.505859 12.966797 C 32.715134 12.722643 32.64622 12.304425 32.367188 12.025391 C 32.210231 11.868435 32.027458 11.781565 31.857422 11.759766 z M 16.003906 11.806641 C 15.83387 11.8328 15.661001 11.92103 15.521484 12.060547 C 15.242451 12.33958 15.171584 12.757799 15.380859 13.001953 L 20.125 17.744141 C 20.369155 17.953416 20.752494 17.884503 21.066406 17.605469 C 21.380319 17.291557 21.414353 16.873338 21.205078 16.664062 L 16.462891 11.919922 C 16.340814 11.815284 16.173942 11.780481 16.003906 11.806641 z M 40.677734 14.376953 C 38.649796 14.376953 36.587133 15.066543 34.576172 16.373047 L 29.878906 19.443359 C 29.787246 19.503909 27.559323 20.935159 26.068359 23.474609 C 24.633413 25.916733 23.591656 29.810781 26.660156 34.533203 L 36.869141 50.25 C 37.006073 50.461622 40.302171 55.42547 45.892578 55.427734 C 47.832488 55.427734 49.770969 54.813296 51.699219 53.615234 L 51.957031 53.46875 L 53.474609 52.505859 L 55.027344 51.470703 L 56.691406 50.398438 C 56.785336 50.337888 58.971925 48.907202 60.462891 46.367188 C 61.897835 43.926192 62.975569 39.995605 59.908203 35.271484 L 49.701172 19.554688 C 49.564239 19.343635 46.268138 14.376953 40.677734 14.376953 z M 40.677734 17.853516 C 44.372605 17.853516 46.796601 21.411417 46.816406 21.441406 L 49.480469 25.582031 L 41.638672 30.685547 L 34.871094 20.294922 L 36.460938 19.257812 C 37.903805 18.320231 39.32766 17.853516 40.677734 17.853516 z M 12.589844 19.802734 C 12.275932 19.802734 12.033203 20.151485 12.033203 20.535156 C 12.033203 20.918827 12.275932 21.267578 12.589844 21.267578 L 19.322266 21.267578 C 19.6013 21.267578 19.845703 20.918827 19.845703 20.535156 C 19.845703 20.151485 19.601022 19.802734 19.287109 19.802734 L 12.589844 19.802734 z M 20.591797 23.128906 C 20.421761 23.107107 20.264794 23.151222 20.160156 23.255859 L 15.416016 28 C 15.206741 28.244155 15.240775 28.627494 15.554688 28.941406 C 15.8686 29.255319 16.288772 29.289353 16.498047 29.080078 L 21.240234 24.337891 C 21.449509 24.093737 21.415475 23.710397 21.101562 23.396484 C 20.944606 23.239528 20.761833 23.150706 20.591797 23.128906 z M 2.1191406 23.494141 L 4.5507812 47.222656 L 12.181641 44.347656 L 17.242188 53.115234 L 20.367188 51.9375 L 15.306641 43.171875 L 23.058594 40.25 L 2.1191406 23.494141 z M 50.478516 27.099609 L 57.023438 37.158203 C 60.94634 43.19731 55.435589 47.096088 54.804688 47.513672 L 50.107422 50.583984 C 48.663989 51.519869 47.24265 51.988281 45.892578 51.988281 C 42.197139 51.985481 39.772323 48.394658 39.751953 48.365234 L 33.207031 38.304688 L 50.478516 27.099609 z "
     id="path26" />
</svg>
