<?xml version="1.0" encoding="UTF-8" standalone="no"?>
<!-- Created with Inkscape (http://www.inkscape.org/) -->

<svg
   xmlns:dc="http://purl.org/dc/elements/1.1/"
   xmlns:cc="http://creativecommons.org/ns#"
   xmlns:rdf="http://www.w3.org/1999/02/22-rdf-syntax-ns#"
   xmlns:svg="http://www.w3.org/2000/svg"
   xmlns="http://www.w3.org/2000/svg"
   xmlns:sodipodi="http://sodipodi.sourceforge.net/DTD/sodipodi-0.dtd"
   xmlns:inkscape="http://www.inkscape.org/namespaces/inkscape"
   width="57.414024mm"
   height="59.140663mm"
   viewBox="0 0 203.43552 209.55353"
   id="svg2"
   version="1.1"
   inkscape:version="0.91 r13725"
   sodipodi:docname="SwapMinePlace.svg">
  <defs
     id="defs4">
    <inkscape:path-effect
       effect="spiro"
       id="path-effect4757"
       is_visible="true" />
    <inkscape:path-effect
       is_visible="true"
       id="path-effect4753"
       effect="spiro" />
    <inkscape:path-effect
       is_visible="true"
       id="path-effect4641"
       effect="spiro" />
    <inkscape:path-effect
       effect="spiro"
       id="path-effect3660"
       is_visible="true" />
    <inkscape:path-effect
       is_visible="true"
       id="path-effect6484"
       effect="spiro" />
    <inkscape:path-effect
       effect="spiro"
       id="path-effect6462"
       is_visible="true" />
    <inkscape:path-effect
       effect="spiro"
       id="path-effect6458"
       is_visible="true" />
    <inkscape:path-effect
       effect="spiro"
       id="path-effect6446"
       is_visible="true" />
    <inkscape:path-effect
       is_visible="true"
       id="path-effect6442"
       effect="spiro" />
    <inkscape:path-effect
       is_visible="true"
       id="path-effect6438"
       effect="spiro" />
    <inkscape:path-effect
       effect="spiro"
       id="path-effect6434"
       is_visible="true" />
    <inkscape:path-effect
       effect="spiro"
       id="path-effect6430"
       is_visible="true" />
    <inkscape:path-effect
       is_visible="true"
       id="path-effect6426"
       effect="spiro" />
    <inkscape:path-effect
       effect="spiro"
       id="path-effect6422"
       is_visible="true" />
    <inkscape:path-effect
       is_visible="true"
       id="path-effect6408"
       effect="spiro" />
    <inkscape:path-effect
       effect="spiro"
       id="path-effect6404"
       is_visible="true" />
    <inkscape:path-effect
       is_visible="true"
       id="path-effect6400"
       effect="spiro" />
    <inkscape:path-effect
       effect="spiro"
       id="path-effect6396"
       is_visible="true" />
    <inkscape:perspective
       sodipodi:type="inkscape:persp3d"
       inkscape:vp_x="-15.467961 : 361.5578 : 1"
       inkscape:vp_y="0 : 999.99999 : 0"
       inkscape:vp_z="744.0945 : 526.1811 : 1"
       inkscape:persp3d-origin="372.04724 : 350.7874 : 1"
       id="perspective6376" />
    <inkscape:path-effect
       effect="spiro"
       id="path-effect5773"
       is_visible="true" />
    <inkscape:path-effect
       effect="spiro"
       id="path-effect5162"
       is_visible="true" />
    <inkscape:path-effect
       effect="spiro"
       id="path-effect5158"
       is_visible="true" />
    <inkscape:path-effect
       is_visible="true"
       id="path-effect5154"
       effect="spiro" />
    <inkscape:path-effect
       effect="spiro"
       id="path-effect5148"
       is_visible="true" />
    <inkscape:path-effect
       is_visible="true"
       id="path-effect4497"
       effect="spiro" />
    <inkscape:path-effect
       effect="spiro"
       id="path-effect4493"
       is_visible="true" />
  </defs>
  <sodipodi:namedview
     id="base"
     pagecolor="#ffffff"
     bordercolor="#666666"
     borderopacity="1.0"
     inkscape:pageopacity="0.0"
     inkscape:pageshadow="2"
     inkscape:zoom="0.8033298"
     inkscape:cx="-16.249432"
     inkscape:cy="123.74551"
     inkscape:document-units="px"
     inkscape:current-layer="layer1"
     showgrid="false"
     inkscape:snap-intersection-paths="true"
     inkscape:object-nodes="true"
     inkscape:snap-smooth-nodes="true"
     inkscape:snap-bbox="true"
     inkscape:object-paths="true"
     inkscape:snap-global="true"
     inkscape:window-width="1280"
     inkscape:window-height="737"
     inkscape:window-x="-8"
     inkscape:window-y="-8"
     inkscape:window-maximized="1"
     fit-margin-top="0"
     fit-margin-left="0"
     fit-margin-right="0"
     fit-margin-bottom="0" />
  <metadata
     id="metadata7">
    <rdf:RDF>
      <cc:Work
         rdf:about="">
        <dc:format>image/svg+xml</dc:format>
        <dc:type
           rdf:resource="http://purl.org/dc/dcmitype/StillImage" />
        <dc:title></dc:title>
      </cc:Work>
    </rdf:RDF>
  </metadata>
  <g
     inkscape:label="Layer 1"
     inkscape:groupmode="layer"
     id="layer1"
     transform="translate(-903.88661,-417.97036)">
    <path
       style="color:#000000;font-style:normal;font-variant:normal;font-weight:normal;font-stretch:normal;font-size:medium;line-height:normal;font-family:sans-serif;text-indent:0;text-align:start;text-decoration:none;text-decoration-line:none;text-decoration-style:solid;text-decoration-color:#000000;letter-spacing:normal;word-spacing:normal;text-transform:none;direction:ltr;block-progression:tb;writing-mode:lr-tb;baseline-shift:baseline;text-anchor:start;white-space:normal;clip-rule:nonzero;display:inline;overflow:visible;visibility:visible;opacity:1;isolation:auto;mix-blend-mode:normal;color-interpolation:sRGB;color-interpolation-filters:linearRGB;solid-color:#000000;solid-opacity:1;fill:#000000;fill-opacity:1;fill-rule:nonzero;stroke:none;stroke-width:8.38775826;stroke-linecap:round;stroke-linejoin:miter;stroke-miterlimit:4;stroke-dasharray:none;stroke-dashoffset:0;stroke-opacity:1;color-rendering:auto;image-rendering:auto;shape-rendering:auto;text-rendering:auto;enable-background:accumulate"
       d="m 1046.9647,576.48785 -30.7148,16.7793 c -3.3123,1.85321 -3.3177,1.83664 0.9043,2.79296 l 13.6894,2.14454 c -5.3077,13.85365 -19.2868,22.40647 -34.11715,20.72265 -15.17802,-1.72325 -27.08926,-13.69267 -28.73828,-28.87891 a 4.1942985,4.1942985 0 0 0 -4.14843,-3.80078 4.1942985,4.1942985 0 0 0 -4.18946,4.70704 c 2.06748,19.0398 17.09947,34.14609 36.12891,36.30664 18.35601,2.08408 35.78611,-8.40769 42.63671,-25.39063 l 10.166,10.24023 c 3.2497,2.86004 3.2331,2.86554 2.793,-0.90429 l -4.4102,-34.71875 z"
       id="path3722"
       inkscape:connector-curvature="0" />
    <path
       inkscape:connector-curvature="0"
       id="path3662"
       d="m 1009.2358,557.25051 0,16.34571 16.3457,0 0,-8.1728 8.1729,0 0,-8.17291 8.1728,0 0,-8.17282 8.1729,0 0,-8.17288 8.1728,0 0,-8.17287 8.1729,0 0,-8.17287 8.1729,0 0,-8.17283 8.1729,0 0,24.51857 8.1728,0 0,8.17288 8.1729,0 0,-8.17288 8.1729,0 0,-40.86431 -8.1729,0 0,-16.3457 -16.3457,0 0,-8.17287 -40.8644,0 0,8.17287 -8.1728,0 0,8.17287 8.1728,0 0,8.17288 24.5186,0 0,8.17287 -8.1729,0 0,8.17282 -8.1728,0 0,8.17283 -8.1729,0 0,8.17287 -8.1728,0 0,8.17287 -8.1729,0 0,8.17288 -8.1728,0 0,8.17282 z"
       style="fill:#000000;fill-opacity:1;fill-rule:evenodd;stroke:#000000;stroke-width:0.02383752px;stroke-linecap:butt;stroke-linejoin:miter;stroke-opacity:1" />
    <path
       style="fill:#000000;fill-opacity:1;fill-rule:evenodd;stroke:#000000;stroke-width:0.72160977px;stroke-linecap:butt;stroke-linejoin:miter;stroke-opacity:1"
       d="m 985.3186,499.60096 -29.94106,-25.46742 -51.13013,19.35528 0,56.02837 29.94106,25.46742 51.13013,-19.35528 0,-56.02837"
       id="path4755"
       inkscape:connector-curvature="0" />
    <path
       id="path4804"
       d="m 964.24479,469.0064 30.71484,-16.7793 c 3.31226,-1.85321 3.31766,-1.83664 -0.9043,-2.79296 l -13.68945,-2.14454 c 5.30777,-13.85365 19.28691,-22.40647 34.11722,-20.72265 15.178,1.72325 27.0892,13.69267 28.7383,28.87891 a 4.1942985,4.1942985 0 0 0 4.1484,3.80078 4.1942985,4.1942985 0 0 0 4.1894,-4.70704 c -2.0674,-19.0398 -17.0994,-34.14609 -36.1289,-36.30664 -18.35594,-2.08408 -35.78612,8.40769 -42.63669,25.39063 L 962.6276,433.38336 c -3.2497,-2.86004 -3.23307,-2.86554 -2.79297,0.90429 l 4.41016,34.71875 z"
       style="color:#000000;font-style:normal;font-variant:normal;font-weight:normal;font-stretch:normal;font-size:medium;line-height:normal;font-family:sans-serif;text-indent:0;text-align:start;text-decoration:none;text-decoration-line:none;text-decoration-style:solid;text-decoration-color:#000000;letter-spacing:normal;word-spacing:normal;text-transform:none;direction:ltr;block-progression:tb;writing-mode:lr-tb;baseline-shift:baseline;text-anchor:start;white-space:normal;clip-rule:nonzero;display:inline;overflow:visible;visibility:visible;opacity:1;isolation:auto;mix-blend-mode:normal;color-interpolation:sRGB;color-interpolation-filters:linearRGB;solid-color:#000000;solid-opacity:1;fill:#000000;fill-opacity:1;fill-rule:nonzero;stroke:none;stroke-width:8.38775826;stroke-linecap:round;stroke-linejoin:miter;stroke-miterlimit:4;stroke-dasharray:none;stroke-dashoffset:0;stroke-opacity:1;color-rendering:auto;image-rendering:auto;shape-rendering:auto;text-rendering:auto;enable-background:accumulate"
       inkscape:connector-curvature="0" />
  </g>
</svg>
